<svg t="1628019121072" class="icon" viewBox="0 0 1024 1024" version="1.1" xmlns="http://www.w3.org/2000/svg" p-id="2970" width="16" height="16"><path d="M512 255.78c-194.98 0-360.39 106.95-421.96 256 61.57 149.05 226.98 256 421.96 256s360.39-106.95 421.96-256c-61.57-149.05-226.98-256-421.96-256z m0 448c-106.04 0-192-85.96-192-192s85.96-192 192-192 192 85.96 192 192-85.96 192-192 192z" fill="#131414" p-id="2971"></path><path d="M512 511.78m-128 0a128 128 0 1 0 256 0 128 128 0 1 0-256 0Z" fill="#131414" p-id="2972"></path></svg>